<?xml version="1.0" encoding="utf-8"?>
<svg viewBox="84.728 30.3936 283.875 60.1406" xmlns="http://www.w3.org/2000/svg">
  <defs/>
  <path d="M 88.78 63.3 L 111.24 53.29 L 111.24 57.44 L 95.88 64.4 L 111.24 71.25 L 111.24 75.42 L 88.78 65.25 Z M 130.04 54.25 Q 127.46 54.25 123.57 56.95 L 123.57 72.75 Q 123.57 74.83 123.95 75.29 Q 124.32 75.75 124.75 75.83 Q 125.19 75.91 125.7 75.91 Q 126.55 75.91 127.84 75.65 L 127.49 78.39 L 115.18 78.39 L 115.56 75.91 Q 117.45 75.91 118.2 74.64 Q 118.98 73.35 118.98 70.28 L 118.98 58.68 Q 118.98 56.27 118.25 55.05 Q 117.52 54.11 115.09 54.11 L 115.44 51.35 L 124.02 50.08 L 123.83 51.37 Q 123.64 52.94 123.64 54.07 L 124.93 53.13 Q 127.13 51.51 129.2 50.78 Q 131.26 50.06 132.71 50.06 Q 137.77 50.06 139.53 54.21 Q 142.49 51.65 145.65 50.55 Q 147.01 50.06 148.52 50.06 Q 150.03 50.06 151.43 50.57 Q 152.82 51.09 153.83 52.12 Q 155.99 54.32 155.99 58.4 Q 155.99 60.98 155.84 63.51 Q 155.4 70.85 155.56 72.67 Q 155.73 74.5 155.89 75.02 Q 156.22 75.91 157.04 75.91 Q 158.19 75.91 159.48 75.65 L 159.15 78.39 L 147.55 78.39 L 147.95 75.91 Q 149.56 75.91 150.22 75.14 Q 150.88 74.32 151.04 70.54 Q 151.2 66.77 151.2 63.21 Q 151.2 59.64 151 58.17 Q 150.81 56.69 150.24 55.82 Q 149.24 54.28 146 54.28 Q 143.61 54.28 140.16 56.62 Q 140.28 57.67 140.28 58.8 Q 140.28 60.63 140.09 63.35 Q 139.46 73.26 140.28 75.02 Q 140.7 75.91 141.88 75.91 Q 143.05 75.91 144.22 75.65 L 143.84 78.39 L 131.45 78.39 L 131.84 75.91 Q 133.95 75.91 134.61 75.28 Q 135.31 74.62 135.41 70.45 Q 135.48 68.1 135.48 63.94 Q 135.48 59.78 135.28 58.26 Q 135.08 56.74 134.52 55.85 Q 133.49 54.25 130.04 54.25 Z M 187.3 57.98 L 186.93 70.42 Q 186.93 72.93 188.45 74.03 Q 189.51 74.81 191.15 74.81 Q 191.05 76 190.19 76.96 Q 188.66 78.65 187.7 78.91 Q 186.25 78.91 184.97 77.92 Q 183.69 76.94 182.99 75.04 Q 180.32 77.57 176.45 78.63 Q 175.37 78.93 173.93 78.93 Q 172.49 78.93 170.86 78.38 Q 169.23 77.83 168.13 76.82 Q 165.9 74.78 165.9 71.27 Q 165.9 67 170.69 64.64 Q 175.14 62.43 182.4 62.43 L 182.66 62.43 Q 182.66 60.96 182.62 59.55 L 182.59 58.61 Q 182.47 55.78 180.55 54.3 Q 179.03 53.13 176.8 53.13 Q 174.58 53.13 173.22 54.31 Q 171.86 55.5 171.86 57.72 Q 171.86 58.54 172.05 59.48 L 167.85 59.48 L 167.69 59.43 Q 167.62 59.06 167.55 58.64 Q 167.33 57.63 167.21 56.54 Q 167.08 55.45 167.08 55.1 Q 167.08 54.58 167.26 54.35 Q 173.33 50.06 179.15 50.06 Q 184.82 50.06 186.62 54.18 Q 187.3 55.71 187.3 57.98 Z M 182.4 71.34 Q 182.57 68.39 182.64 65.01 Q 182.38 64.92 181.08 64.92 Q 179.78 64.92 177.8 65.33 Q 175.82 65.74 174.34 66.51 Q 171.2 68.17 171.2 70.96 Q 171.2 72.91 172.47 74.22 Q 173.76 75.53 175.8 75.53 Q 178.33 75.53 181 73.26 Q 181.8 72.58 182.4 71.83 Z M 201.96 75.28 Q 201.96 75.28 202.13 75.49 Q 202.31 75.7 202.88 75.8 Q 203.46 75.91 205.29 75.91 Q 207.11 75.91 208.15 75.63 L 207.98 78.39 L 192.89 78.39 L 193.22 75.91 Q 195.28 75.91 195.86 75.18 Q 196.92 73.87 196.92 70.54 L 196.92 59.25 Q 196.92 56.08 196.26 55.33 Q 195.54 54.49 193.08 54.35 L 193.4 51.35 L 201.82 50.08 Q 201.58 51.79 201.58 54 Q 204.04 51.65 207.35 50.46 Q 208.52 50.06 209.58 50.06 Q 214.08 50.06 214.08 54.07 Q 214.08 56.43 213.4 59.15 Q 213.35 59.34 213.33 59.4 Q 213.3 59.46 213.3 59.48 L 209.39 59.48 L 209.53 58.38 L 209.62 57.44 Q 209.67 57 209.67 56.5 Q 209.67 56.01 209.59 55.52 Q 209.51 55.03 209.27 54.7 Q 208.85 54.07 207.84 54.07 Q 206.83 54.07 205.93 54.37 Q 205.03 54.67 204.19 55.1 Q 202.47 55.99 201.54 56.92 L 201.58 56.9 L 201.61 72.63 Q 201.61 74.85 201.96 75.28 Z M 237 72.86 Q 239.88 75.91 241.4 75.91 Q 242.27 75.91 242.97 75.58 L 242.74 78.39 L 237.89 78.39 Q 234.77 78.39 230.11 72.75 Q 227.76 69.82 226.8 68.48 L 225.18 66.25 Q 224.53 65.39 223.99 64.78 L 223.99 72.86 Q 223.99 74.85 224.26 75.29 Q 224.53 75.72 224.84 75.82 Q 225.16 75.91 225.56 75.91 Q 226.71 75.91 227.41 75.58 L 227.06 78.39 L 215.6 78.39 L 215.97 75.91 Q 218.06 75.91 218.71 74.83 Q 219.35 73.87 219.35 71.06 L 219.35 46.4 Q 219.35 43.99 218.79 43.33 Q 218.22 42.67 217.21 42.58 Q 216.21 42.49 214.87 42.49 L 215.15 39.82 L 224.55 38.43 Q 223.99 40.89 223.99 50.39 L 223.99 62.74 Q 229.26 58.35 230.6 57.02 Q 232.82 54.75 232.82 54.16 Q 232.82 53.53 232.4 53.39 Q 231.68 53.1 229.78 53.1 L 230.06 50.5 L 242.32 50.5 L 242.08 53.1 L 241.38 53.1 Q 239.55 53.1 237.02 55.47 Q 233.71 58.17 232.1 59.6 Q 228.91 62.43 228.11 63.21 Q 228.14 63.25 228.51 63.7 Q 233.32 69.11 234.63 70.47 Z M 272.21 74.13 L 272.39 74.1 L 272.51 74.1 L 272.44 77.01 L 265.55 78.79 Q 264.54 77.22 264.21 75.11 Q 261.68 77.22 257.58 78.39 Q 256.18 78.79 254.69 78.79 Q 253.2 78.79 251.73 78.3 Q 250.27 77.81 249.19 76.8 Q 246.92 74.67 246.92 70.57 L 247.1 57.32 Q 247.1 54.98 246.38 54.3 Q 245.84 53.81 244.15 53.64 L 244.5 51.35 L 252.57 50.03 L 252.1 54.39 Q 251.6 58.89 251.6 68.08 Q 251.6 71.83 252.66 73.33 Q 253.69 74.85 256.32 74.85 Q 258.68 74.85 260.42 74.17 Q 263.18 73.05 263.91 72.16 L 263.86 72.18 L 263.86 57.56 Q 263.86 55.1 262.9 54.39 Q 262.15 53.81 259.55 53.76 L 259.9 51.35 L 268.97 50.03 Q 268.9 51.25 268.83 52.14 L 268.74 53.71 Q 268.69 54.49 268.64 55.11 Q 268.6 55.73 268.57 56.41 Q 268.53 57.77 268.53 60.09 L 268.53 71.25 Q 268.53 73.5 268.91 73.99 Q 269.3 74.48 269.64 74.53 Q 269.98 74.57 270.38 74.57 L 270.59 74.57 Q 271.32 74.57 272.21 74.13 Z M 280.25 79.73 L 280.3 84.35 Q 280.3 86.41 280.53 86.83 Q 280.77 87.25 281.13 87.36 Q 281.49 87.46 282.34 87.46 Q 283.18 87.46 283.98 87.39 Q 286.04 87.25 286.28 87.09 L 285.85 90.3 L 271.28 90.3 L 271.65 87.7 Q 273.83 87.7 274.44 87.04 Q 275.57 85.87 275.57 82.57 L 275.57 58.52 Q 275.57 55.68 274.56 54.86 Q 273.92 54.35 271.84 54.35 L 272.21 51.35 L 280.42 50.03 Q 280.37 50.53 280.32 51.07 Q 280.28 51.6 280.24 52.25 Q 280.21 52.89 280.16 53.6 Q 283.09 51.18 286.79 50.32 Q 287.96 50.06 289.07 50.06 Q 290.17 50.06 291.43 50.34 Q 292.7 50.62 293.88 51.26 Q 295.07 51.91 296.1 52.93 Q 297.13 53.95 297.9 55.42 Q 299.57 58.61 299.57 63.35 Q 299.57 69.72 295.89 74.13 Q 292.04 78.75 286.04 78.75 Q 282.62 78.75 280.28 78.09 Q 280.25 78.49 280.25 78.91 Z M 280.3 73.4 Q 281.26 74.92 284.59 75.58 Q 285.53 75.77 287.04 75.77 Q 288.55 75.77 290.11 74.95 Q 291.67 74.13 292.7 72.6 Q 294.69 69.6 294.69 63.93 Q 294.69 56.88 290.42 54.77 Q 288.88 54.02 287.28 54.02 Q 285.69 54.02 284.66 54.3 Q 283.63 54.58 282.71 54.96 Q 280.79 55.75 280.25 56.36 L 280.3 56.34 Z M 331.41 53.22 Q 330.92 53.15 330.6 53.15 Q 330.28 53.15 329.98 53.44 Q 329.68 53.74 329.36 54.28 Q 329.04 54.82 328.69 55.57 L 327.96 57.28 Q 326.84 59.92 325.62 63.16 L 320.16 77.64 L 318.71 81.35 Q 317 85.5 316.08 86.85 Q 315.17 88.21 314.3 88.96 Q 312.5 90.53 310.08 90.53 Q 307.6 90.53 305.16 88.38 Q 304.46 87.75 303.94 87.04 L 305.46 84.44 L 305.68 84.42 Q 308.44 85.96 310.32 85.96 Q 312.85 85.96 314.6 82.26 Q 315.07 81.28 315.43 80.36 L 316.34 78 L 314.37 77.08 L 314.3 77.06 L 306.14 56.97 Q 305.7 55.89 305.38 55.07 Q 305.07 54.25 304.32 53.69 Q 303.57 53.13 303.17 53.13 L 302.68 53.13 Q 302.58 53.13 302.32 53.15 L 302.65 50.53 L 314.51 50.53 L 314.18 53.1 Q 313.76 53.17 313.22 53.17 L 312.59 53.17 Q 311.46 53.17 310.97 54.07 Q 310.76 54.46 310.76 55 Q 310.76 55.54 311.04 56.54 Q 311.32 57.53 311.79 58.89 Q 313.22 62.83 314.04 64.85 Q 317.53 73.59 317.82 74.25 Q 320 68.29 320.49 66.82 L 322.62 60.67 Q 324.43 55.73 324.43 54.6 Q 324.43 53.13 322.36 53.13 Q 321.59 53.13 320.6 53.27 L 321 50.53 L 331.81 50.53 Z M 357.2 63.3 L 334.74 53.29 L 334.74 57.44 L 350.1 64.4 L 334.74 71.25 L 334.74 75.42 L 357.2 65.25 Z" style="fill: rgb(51, 51, 51); stroke-width: 0px;"/>
</svg>