<?xml version="1.0" encoding="utf-8"?>
<svg viewBox="256.151 203.541 482.911 98.716" xmlns="http://www.w3.org/2000/svg">
  <path d="M 303.899 279.349 L 303.899 283.673 L 289.087 285.053 L 280.347 280.453 L 280.347 284.869 L 265.351 286.157 L 256.151 281.557 L 256.151 231.049 L 270.227 229.853 L 272.711 232.061 Q 274.183 230.681 276.299 229.715 Q 278.415 228.749 280.623 228.565 Q 280.991 228.565 281.313 228.519 Q 281.635 228.473 282.003 228.473 Q 285.775 228.473 289.041 230.221 Q 292.307 231.969 294.055 234.177 Q 295.343 231.785 297.919 229.715 Q 300.495 227.645 304.175 227.369 Q 304.635 227.369 305.141 227.323 Q 305.647 227.277 306.199 227.277 Q 311.811 227.277 316.687 229.393 Q 321.563 231.509 324.553 235.511 Q 327.543 239.513 327.543 245.217 L 327.543 282.661 L 312.547 283.857 Z M 317.423 240.617 Q 317.423 234.269 314.111 231.233 Q 310.799 228.197 305.831 228.197 Q 305.463 228.197 305.095 228.243 Q 304.727 228.289 304.267 228.289 Q 301.323 228.565 299.069 230.129 Q 296.815 231.693 295.435 233.901 Q 294.055 236.109 293.503 238.409 L 293.227 238.317 Q 292.491 235.005 289.777 232.199 Q 287.063 229.393 282.095 229.393 Q 281.727 229.393 281.405 229.439 Q 281.083 229.485 280.715 229.485 Q 276.207 229.853 273.263 232.981 Q 270.319 236.109 269.583 240.065 L 269.307 240.157 L 269.307 230.865 L 257.071 231.877 L 257.071 280.545 L 270.227 279.533 L 270.227 249.449 Q 270.687 247.149 272.113 245.309 Q 273.539 243.469 276.023 243.285 L 276.667 243.285 Q 278.599 243.285 279.703 244.619 Q 280.807 245.953 280.807 248.989 L 280.807 279.533 L 293.779 278.337 L 293.779 248.253 Q 294.239 246.045 295.665 244.205 Q 297.091 242.365 299.483 242.181 L 300.127 242.181 Q 302.151 242.181 303.209 243.469 Q 304.267 244.757 304.267 247.793 L 304.267 278.337 L 317.423 277.233 Z M 384.853 281.465 Q 381.909 282.661 378.781 282.661 Q 375.929 282.661 373.537 281.879 Q 371.145 281.097 369.857 280.361 Q 365.809 285.237 357.989 285.973 Q 357.253 286.065 356.517 286.065 Q 355.781 286.065 355.045 286.065 Q 349.341 286.065 344.557 284.087 Q 339.773 282.109 336.875 278.107 Q 333.977 274.105 333.977 268.217 Q 333.977 261.869 337.519 258.097 Q 341.061 254.325 348.145 250.921 L 343.453 249.357 L 334.253 244.757 Q 336.553 236.753 341.751 232.705 Q 346.949 228.657 353.573 228.013 Q 354.401 227.921 355.229 227.875 Q 356.057 227.829 356.793 227.829 Q 363.417 227.829 368.845 230.267 Q 374.273 232.705 377.493 237.167 Q 380.713 241.629 380.713 247.609 L 380.713 265.089 L 386.325 267.849 Z M 376.021 264.813 Q 373.813 265.825 372.709 265.825 Q 370.593 265.825 370.593 263.065 L 370.593 243.009 Q 370.593 228.841 356.333 228.841 Q 355.689 228.841 355.045 228.841 Q 354.401 228.841 353.665 228.933 Q 347.317 229.577 342.349 233.349 Q 337.381 237.121 335.357 244.297 L 345.661 247.701 Q 346.673 244.573 348.467 242.641 Q 350.261 240.709 352.561 240.525 Q 352.837 240.525 353.113 240.479 Q 353.389 240.433 353.573 240.433 Q 355.689 240.433 356.793 241.445 Q 357.897 242.457 357.897 244.205 Q 357.897 246.137 356.701 247.287 Q 355.505 248.437 353.389 249.449 L 349.249 251.381 Q 342.165 254.693 338.531 258.327 Q 334.897 261.961 334.897 268.217 Q 334.897 280.545 346.489 280.545 Q 347.041 280.545 347.593 280.545 Q 348.145 280.545 348.697 280.453 Q 353.113 280.085 356.333 278.337 Q 359.553 276.589 361.209 273.369 Q 361.853 275.301 363.969 276.405 Q 366.085 277.509 368.937 277.509 Q 371.973 277.509 374.733 276.313 Z M 351.273 269.781 Q 349.709 269.781 348.697 268.907 Q 347.685 268.033 347.685 266.377 Q 347.685 262.421 351.733 260.489 L 353.573 259.569 Q 354.861 258.925 356.103 258.327 Q 357.345 257.729 357.989 256.993 L 357.989 263.341 Q 357.529 266.193 355.781 267.895 Q 354.033 269.597 351.917 269.781 Z M 391.573 280.085 L 391.573 229.577 L 406.385 228.197 L 408.685 229.301 Q 411.445 226.541 415.125 226.265 L 416.321 226.265 Q 417.885 226.265 419.265 226.495 Q 420.645 226.725 421.933 227.001 L 431.133 231.601 L 432.881 247.425 Q 428.649 245.769 425.705 245.769 Q 425.245 245.769 424.739 245.769 Q 424.233 245.769 423.773 245.861 Q 421.565 246.045 419.725 247.517 Q 417.885 248.989 416.827 251.243 Q 415.769 253.497 415.769 255.889 L 415.769 283.305 L 400.773 284.685 Z M 405.649 251.289 Q 405.649 248.621 406.845 246.183 Q 408.041 243.745 410.065 242.135 Q 412.089 240.525 414.481 240.341 Q 415.033 240.249 415.585 240.249 Q 416.137 240.249 416.597 240.249 Q 418.253 240.249 419.679 240.571 Q 421.105 240.893 422.577 241.445 L 421.013 227.829 Q 420.185 227.645 418.989 227.415 Q 417.793 227.185 416.321 227.185 L 415.217 227.185 Q 411.997 227.461 409.283 230.083 Q 406.569 232.705 405.741 236.753 L 405.465 236.753 L 405.465 229.209 L 392.493 230.405 L 392.493 279.165 L 405.649 277.969 Z M 463.698 279.073 L 461.306 273.921 L 461.306 283.673 L 446.31 285.053 L 437.11 280.453 L 437.11 210.625 L 452.106 209.245 L 461.306 213.845 L 461.306 229.301 L 461.674 228.657 L 478.97 227.185 L 488.17 231.785 L 474.186 253.589 L 489.734 282.293 L 472.898 283.673 Z M 477.222 228.289 L 462.226 229.577 L 451.186 248.989 L 451.186 210.257 L 438.03 211.453 L 438.03 279.533 L 451.186 278.337 L 451.186 268.953 L 456.062 260.489 L 464.158 278.153 L 478.97 276.865 L 463.974 248.989 Z M 524.696 282.385 Q 523.684 283.305 521.522 284.133 Q 519.36 284.961 516.876 285.145 Q 516.416 285.237 515.864 285.237 Q 515.312 285.237 514.852 285.237 Q 511.172 285.237 507.354 284.271 Q 503.536 283.305 500.316 281.235 Q 497.096 279.165 495.118 275.807 Q 493.14 272.449 493.14 267.757 L 493.14 230.129 L 508.136 228.841 L 516.416 232.889 L 516.416 263.525 Q 516.876 263.065 517.29 262.927 Q 517.704 262.789 518.072 262.145 L 518.072 228.841 L 532.976 227.553 L 542.176 232.153 L 542.176 282.753 L 528.008 283.949 Z M 518.992 229.669 L 518.992 262.329 Q 518.072 264.077 516.554 265.135 Q 515.036 266.193 512.46 266.469 L 512 266.469 Q 510.068 266.469 508.642 265.181 Q 507.216 263.893 507.216 260.765 L 507.216 229.853 L 494.06 230.957 L 494.06 267.757 Q 494.06 274.105 497.556 276.957 Q 501.052 279.809 506.204 279.809 L 507.952 279.809 Q 512.368 279.349 515.542 277.003 Q 518.716 274.657 519.452 271.253 L 519.728 271.345 L 519.728 278.429 L 532.056 277.325 L 532.056 228.565 Z" style="fill: rgb(48, 105, 152); text-wrap-mode: nowrap;"/>
  <path d="M 552.944 293.425 L 552.944 206.117 L 575.944 204.001 L 585.144 208.601 L 585.144 221.573 L 574.38 222.585 L 574.38 278.613 L 575.944 278.429 L 585.144 282.937 L 585.144 296.001 L 562.144 298.025 Z M 564.26 280.361 L 564.26 217.157 L 575.024 216.145 L 575.024 205.013 L 553.864 206.945 L 553.864 292.413 L 575.024 290.573 L 575.024 279.441 Z" style="fill: rgb(255, 212, 59); text-wrap-mode: nowrap;"/>
  <path d="M 593.149 297.381 L 593.149 230.865 L 607.225 229.669 L 609.433 230.773 Q 610.905 229.577 612.837 228.703 Q 614.769 227.829 617.253 227.645 Q 617.805 227.553 618.357 227.553 Q 618.909 227.553 619.461 227.553 Q 624.429 227.553 629.075 229.393 Q 633.721 231.233 637.447 234.959 Q 641.173 238.685 643.381 244.205 Q 645.589 249.725 645.589 257.177 Q 645.589 270.241 640.529 277.325 Q 635.469 284.409 626.453 285.145 Q 626.085 285.237 625.671 285.237 Q 625.257 285.237 624.797 285.237 Q 622.221 285.237 620.335 284.685 Q 618.449 284.133 617.345 283.673 L 617.345 300.693 L 602.349 301.981 Z M 607.501 275.761 Q 608.237 277.509 610.353 278.659 Q 612.469 279.809 615.597 279.809 Q 615.965 279.809 616.379 279.809 Q 616.793 279.809 617.161 279.717 Q 625.901 278.981 630.685 272.081 Q 635.469 265.181 635.469 252.577 Q 635.469 240.525 631.053 234.499 Q 626.637 228.473 619.001 228.473 Q 618.633 228.473 618.219 228.473 Q 617.805 228.473 617.345 228.565 Q 613.021 228.933 610.353 231.187 Q 607.685 233.441 606.581 236.293 L 606.305 236.293 L 606.305 230.681 L 594.069 231.693 L 594.069 296.369 L 607.225 295.265 L 607.225 275.853 Z M 613.389 267.481 Q 611.089 267.481 609.387 266.285 Q 607.685 265.089 607.225 263.157 L 607.225 250.461 Q 607.225 246.321 609.203 243.653 Q 611.181 240.985 614.401 240.709 L 614.953 240.709 Q 617.897 240.709 619.921 243.791 Q 621.945 246.873 621.945 253.773 Q 621.945 260.765 620.105 263.939 Q 618.265 267.113 614.217 267.481 Z M 617.345 265.549 Q 619.001 264.261 620.013 261.409 Q 621.025 258.557 621.025 253.773 Q 621.025 251.933 620.887 250.323 Q 620.749 248.713 620.381 247.517 Q 618.725 248.069 618.035 249.679 Q 617.345 251.289 617.345 255.061 Z M 648.621 288.917 Q 652.669 285.421 656.073 281.695 Q 659.477 277.969 661.593 274.841 L 646.321 230.313 L 662.697 228.841 L 671.897 233.441 L 674.749 243.009 Q 675.577 239.329 676.175 236.017 Q 676.773 232.705 677.417 228.657 L 692.597 227.277 L 701.797 231.877 Q 699.313 246.873 695.449 259.201 Q 691.585 271.529 685.421 282.063 Q 679.257 292.597 669.965 302.257 L 660.765 297.657 Z M 660.581 296.369 Q 669.597 287.077 675.577 276.819 Q 681.557 266.561 685.329 254.601 Q 689.101 242.641 691.401 228.381 L 678.153 229.577 Q 676.957 237.949 675.209 245.447 Q 673.461 252.945 670.977 259.753 L 661.961 229.853 L 647.609 231.141 L 662.605 275.025 Q 660.489 278.245 657.039 282.063 Q 653.589 285.881 650.093 288.825 Z" style="fill: rgb(48, 105, 152); text-wrap-mode: nowrap;"/>
  <path d="M 706.862 292.965 L 706.862 279.993 L 717.626 279.073 L 717.626 223.137 L 717.442 223.137 Q 717.166 223.137 716.614 223.183 Q 716.062 223.229 716.062 223.229 L 706.862 218.629 L 706.862 205.657 L 729.862 203.541 L 739.062 208.141 L 739.062 295.541 L 716.062 297.565 Z M 707.782 206.485 L 707.782 217.617 L 718.546 216.605 L 718.546 279.809 L 707.782 280.821 L 707.782 291.953 L 728.942 290.113 L 728.942 204.553 Z" style="fill: rgb(255, 212, 59); text-wrap-mode: nowrap;"/>
</svg>