<?xml version="1.0" encoding="UTF-8" standalone="no"?>
<svg
   viewBox="256.151 203.541 482.911 98.716"
   version="1.1"
   id="svg4"
   sodipodi:docname="markupy.svg"
   inkscape:version="1.4 (e7c3feb1, 2024-10-09)"
   xmlns:inkscape="http://www.inkscape.org/namespaces/inkscape"
   xmlns:sodipodi="http://sodipodi.sourceforge.net/DTD/sodipodi-0.dtd"
   xmlns="http://www.w3.org/2000/svg"
   xmlns:svg="http://www.w3.org/2000/svg">
  <defs
     id="defs4" />
  <sodipodi:namedview
     id="namedview4"
     pagecolor="#ffffff"
     bordercolor="#000000"
     borderopacity="0.25"
     inkscape:showpageshadow="2"
     inkscape:pageopacity="0.0"
     inkscape:pagecheckerboard="0"
     inkscape:deskcolor="#d1d1d1"
     inkscape:zoom="26.479116"
     inkscape:cx="365.0424"
     inkscape:cy="48.094506"
     inkscape:window-width="1472"
     inkscape:window-height="892"
     inkscape:window-x="0"
     inkscape:window-y="64"
     inkscape:window-maximized="0"
     inkscape:current-layer="svg4" />
  <path
     d="m 357.98889,256.99217 c -0.42933,0.49067 -1.05872,0.93532 -1.88672,1.33399 -0.828,0.39866 -1.67063,0.81285 -2.5293,1.24218 l -1.83984,0.91993 c -2.69867,1.288 -4.04883,3.25133 -4.04883,5.88867 0,1.104 0.33901,1.94663 1.01367,2.52929 0.67467,0.58267 1.53156,0.875 2.57422,0.875 h 0.64453 c 1.41067,-0.12266 2.69991,-0.75205 3.86524,-1.88671 1.16533,-1.13467 1.90036,-2.65141 2.20703,-4.55274 z"
     style="fill:#306998"
     id="path29" />
  <path
     d="m 355.04553,228.84178 c -0.42933,0 -0.89019,0.0305 -1.38086,0.0918 -4.232,0.42933 -8.0044,1.90135 -11.3164,4.41601 -3.312,2.51467 -5.64286,6.16327 -6.99219,10.94727 l 10.30469,3.4043 c 0.67466,-2.08534 1.61064,-3.77255 2.80664,-5.06055 1.196,-1.288 2.56041,-1.99257 4.09375,-2.11524 0.184,0 0.36873,-0.0162 0.55273,-0.0469 0.184,-0.0307 0.33632,-0.0449 0.45898,-0.0449 1.41067,0 2.48471,0.33705 3.22071,1.01172 0.736,0.67466 1.10351,1.59443 1.10351,2.75976 0,1.288 -0.39798,2.31537 -1.19531,3.08203 -0.79733,0.76667 -1.90183,1.48745 -3.3125,2.16211 l -4.14062,1.93164 c -4.72267,2.208 -8.29413,4.52265 -10.7168,6.94532 -2.42267,2.42266 -3.63477,5.71995 -3.63477,9.89062 0,8.21867 3.8638,12.32813 11.5918,12.32813 h 1.10352 c 0.368,0 0.73747,-0.0305 1.10546,-0.0918 2.94401,-0.24533 5.4881,-0.9499 7.63477,-2.11524 2.14667,-1.16533 3.77295,-2.82208 4.87695,-4.96875 0.42934,1.288 1.3491,2.29916 2.75977,3.03516 1.41067,0.736 3.06546,1.10547 4.9668,1.10547 2.024,0 3.95687,-0.39993 5.79687,-1.19727 l 1.28711,-11.5 c -1.472,0.67467 -2.57455,1.01172 -3.31055,1.01172 -1.41066,0 -2.11718,-0.91976 -2.11718,-2.75976 v -20.05469 c 0,-9.44533 -4.7531,-14.16797 -14.25977,-14.16797 z m 2.94336,28.15039 v 6.34961 c -0.30667,1.90133 -1.0417,3.41807 -2.20703,4.55274 -1.16533,1.13466 -2.45457,1.76405 -3.86524,1.88671 h -0.64453 c -1.04266,0 -1.89955,-0.29233 -2.57422,-0.875 -0.67466,-0.58266 -1.01367,-1.42529 -1.01367,-2.52929 0,-2.63734 1.35016,-4.60067 4.04883,-5.88867 l 1.83984,-0.91993 c 0.85867,-0.42933 1.7013,-0.84352 2.5293,-1.24218 0.828,-0.39867 1.45739,-0.84332 1.88672,-1.33399 z"
     style="fill:#ffffff;fill-opacity:1"
     id="path26" />
  <path
     d="m 532.0553,228.56444 -13.0625,1.10547 v 32.6582 c -0.61334,1.16533 -1.42746,2.10131 -2.43946,2.80664 -1.012,0.70533 -2.37641,1.14998 -4.09375,1.33398 h -0.45898 c -1.288,0 -2.40871,-0.42844 -3.35938,-1.28711 -0.95066,-0.85866 -1.42578,-2.33068 -1.42578,-4.41601 V 229.8535 l -13.15625,1.10352 v 36.80078 c 0,4.232 1.16543,7.29788 3.4961,9.19922 2.33066,1.90133 5.21377,2.85156 8.64843,2.85156 h 1.74805 c 2.944,-0.30667 5.47385,-1.24069 7.58985,-2.80469 2.116,-1.564 3.41948,-3.48067 3.91015,-5.75 l 0.27539,0.0918 v 7.08398 l 12.32813,-1.10547 z"
     style="fill:#ffffff;fill-opacity:1"
     id="path25" />
  <path
     d="m 618.21936,228.47264 c -0.276,0 -0.56833,0.0305 -0.875,0.0918 -2.88267,0.24533 -5.21352,1.12038 -6.99219,2.62304 -1.77866,1.50267 -3.03548,3.20414 -3.77148,5.10547 h -0.27539 v -5.61133 l -12.23633,1.01172 v 64.67578 l 13.15625,-1.10351 V 275.8535 l 0.27539,-0.0918 c 0.49067,1.16534 1.4409,2.12982 2.85156,2.89649 1.41067,0.76666 3.15881,1.15039 5.24414,1.15039 h 0.78321 c 0.276,0 0.53591,-0.0305 0.78125,-0.0918 5.82666,-0.49067 10.3341,-3.03672 13.52343,-7.63672 3.18934,-4.6 4.78516,-11.10124 4.78516,-19.5039 0,-8.03467 -1.47202,-14.0608 -4.41602,-18.07813 -2.944,-4.01733 -6.96206,-6.02539 -12.05273,-6.02539 z m -3.81836,12.23633 h 0.55273 c 1.96267,0 3.61747,1.02736 4.9668,3.08203 1.34933,2.05467 2.02539,5.38242 2.02539,9.98242 0,4.66134 -0.61513,8.05002 -1.84179,10.16602 -1.22667,2.116 -3.18806,3.29568 -5.88672,3.54101 h -0.82813 c -1.53333,0 -2.86729,-0.39798 -4.00195,-1.19531 -1.13467,-0.79733 -1.85544,-1.84091 -2.16211,-3.12891 v -12.69531 c 0,-2.76 0.65985,-5.02993 1.97851,-6.80859 1.31867,-1.77867 3.0506,-2.75936 5.19727,-2.94336 z"
     style="fill:#ffffff;fill-opacity:1"
     id="path24" />
  <path
     d="m 691.401,228.38084 -13.24805,1.19532 c -0.79733,5.58133 -1.77802,10.87242 -2.94336,15.87109 -1.16533,4.99867 -2.57642,9.76797 -4.23242,14.30664 l -9.01562,-29.90039 -14.35352,1.28711 14.9961,43.88476 c -1.41067,2.14667 -3.26446,4.49178 -5.56446,7.03711 -2.3,2.54534 -4.6166,4.79906 -6.94726,6.76172 l 10.48828,7.54492 c 6.01066,-6.19466 11.00942,-12.71211 14.99609,-19.55078 3.98667,-6.83866 7.23729,-14.24346 9.75195,-22.21679 2.51467,-7.97334 4.53894,-16.71404 6.07227,-26.22071 z"
     style="fill:#ffffff;fill-opacity:1"
     id="path23" />
  <path
     d="m 305.83069,228.19725 c -0.24534,0 -0.491,0.0143 -0.73633,0.0449 -0.24533,0.0307 -0.52146,0.0469 -0.82813,0.0469 -1.96266,0.184 -3.69459,0.79717 -5.19726,1.83984 -1.50267,1.04267 -2.71477,2.29949 -3.63477,3.77148 -0.92,1.472 -1.56364,2.97448 -1.93164,4.50782 l -0.27539,-0.0918 c -0.49066,-2.208 -1.63988,-4.24652 -3.44922,-6.11719 -1.80933,-1.87066 -4.37159,-2.80664 -7.68359,-2.80664 -0.24533,0 -0.47479,0.0162 -0.68945,0.0469 -0.21467,0.0307 -0.44412,0.0449 -0.68946,0.0449 -3.00533,0.24533 -5.49046,1.41076 -7.45312,3.49609 -1.96267,2.08534 -3.18902,4.44665 -3.67969,7.08399 l -0.27539,0.0918 v -9.29101 l -12.23633,1.01172 v 48.66797 l 13.15625,-1.01172 V 249.4492 c 0.30667,-1.53333 0.93605,-2.91396 1.88672,-4.14062 0.95067,-1.22667 2.2522,-1.90077 3.9082,-2.02344 h 0.64453 c 1.28801,0 2.30111,0.44465 3.03711,1.33398 0.736,0.88934 1.10352,2.34515 1.10352,4.36915 v 30.54492 l 12.97266,-1.19532 v -30.08398 c 0.30666,-1.472 0.9341,-2.82216 1.88476,-4.04883 0.95067,-1.22666 2.22369,-1.90077 3.81836,-2.02344 h 0.64453 c 1.34934,0 2.3767,0.42845 3.08203,1.28711 0.70534,0.85867 1.05664,2.30022 1.05664,4.32422 v 30.54492 l 13.15625,-1.10546 v -36.61524 c 0,-4.232 -1.10254,-7.36076 -3.31054,-9.38476 -2.208,-2.024 -4.96925,-3.03516 -8.28125,-3.03516 z"
     style="fill:#ffffff;fill-opacity:1"
     id="path22" />
  <path
     d="m 356.79358,227.82811 c -0.49067,0 -1.01245,0.0162 -1.56446,0.0469 -0.55199,0.0307 -1.10424,0.0773 -1.65625,0.13868 -4.41599,0.42933 -8.35693,1.99274 -11.82226,4.6914 -3.46533,2.69867 -5.96471,6.71674 -7.49805,12.05274 l 9.20117,4.59961 4.69141,1.56445 c -4.72267,2.26933 -8.26562,4.66111 -10.62695,7.17578 -2.36134,2.51467 -3.54102,5.88714 -3.54102,10.11914 0,3.92533 0.96644,7.22263 2.89844,9.89063 1.932,2.668 4.49231,4.6618 7.68164,5.98046 3.18933,1.31867 6.68561,1.97657 10.48828,1.97657 h 1.4707 c 0.49067,0 0.98199,-0.0305 1.47266,-0.0918 5.21333,-0.49067 9.16852,-2.36066 11.86719,-5.61133 0.85866,0.49067 2.08697,0.99625 3.68164,1.51758 1.59467,0.52133 3.34281,0.78125 5.24414,0.78125 2.08533,0 4.10765,-0.39798 6.07031,-1.19531 l 1.47266,-13.61524 -5.61133,-2.75976 v -17.48047 c 0,-3.98667 -1.07404,-7.46674 -3.2207,-10.44141 -2.14667,-2.97466 -5.02977,-5.27505 -8.64844,-6.90039 -3.61867,-1.62533 -7.63478,-2.43945 -12.05078,-2.43945 z m -1.74805,1.01367 h 1.28711 c 9.50667,0 14.25977,4.72264 14.25977,14.16797 v 20.05469 c 0,1.84 0.70652,2.75976 2.11718,2.75976 0.736,0 1.83855,-0.33705 3.31055,-1.01172 l -1.28711,11.5 c -1.84,0.79734 -3.77287,1.19727 -5.79687,1.19727 -1.90134,0 -3.55613,-0.36947 -4.9668,-1.10547 -1.41067,-0.736 -2.33043,-1.74716 -2.75977,-3.03516 -1.104,2.14667 -2.73028,3.80342 -4.87695,4.96875 -2.14667,1.16534 -4.69076,1.86991 -7.63477,2.11524 -0.36799,0.0613 -0.73746,0.0918 -1.10546,0.0918 h -1.10352 c -7.728,0 -11.5918,-4.10946 -11.5918,-12.32813 0,-4.17067 1.2121,-7.46796 3.63477,-9.89062 2.42267,-2.42267 5.99413,-4.73732 10.7168,-6.94532 l 4.14062,-1.93164 c 1.41067,-0.67466 2.51517,-1.39544 3.3125,-2.16211 0.79733,-0.76666 1.19531,-1.79403 1.19531,-3.08203 0,-1.16533 -0.36751,-2.0851 -1.10351,-2.75976 -0.736,-0.67467 -1.81004,-1.01172 -3.22071,-1.01172 -0.12266,0 -0.27498,0.0143 -0.45898,0.0449 -0.184,0.0307 -0.36873,0.0469 -0.55273,0.0469 -1.53334,0.12267 -2.89775,0.82724 -4.09375,2.11524 -1.196,1.288 -2.13198,2.97521 -2.80664,5.06055 l -10.30469,-3.4043 c 1.34933,-4.784 3.68019,-8.4326 6.99219,-10.94727 3.312,-2.51466 7.0844,-3.98668 11.3164,-4.41601 0.49067,-0.0613 0.95153,-0.0918 1.38086,-0.0918 z"
     style="fill:#306998"
     id="path21" />
  <path
     d="m 532.97522,227.55272 -14.90234,1.28906 v 33.30274 c -0.24534,0.42933 -0.50721,0.6912 -0.78321,0.7832 -0.276,0.092 -0.56638,0.29099 -0.87304,0.59765 v -30.63671 l -8.28126,-4.04688 -14.99609,1.28711 v 37.62891 c 0,3.128 0.65985,5.81016 1.97852,8.04882 1.31866,2.23867 3.0506,4.04774 5.19726,5.42774 2.14667,1.38 4.49373,2.39311 7.03906,3.03711 2.54534,0.644 5.04472,0.96484 7.49805,0.96484 h 1.01172 c 0.368,0 0.70505,-0.0305 1.01172,-0.0918 1.656,-0.12267 3.20515,-0.45972 4.64648,-1.01172 1.44134,-0.552 2.49917,-1.13472 3.17383,-1.74805 l 3.3125,1.56445 14.16797,-1.19531 v -50.60156 z m -0.91992,1.01172 v 48.75976 l -12.32813,1.10547 v -7.08398 l -0.27539,-0.0918 c -0.49067,2.26933 -1.79415,4.186 -3.91015,5.75 -2.116,1.564 -4.64585,2.49802 -7.58985,2.80469 h -1.74805 c -3.43466,0 -6.31777,-0.95023 -8.64843,-2.85156 -2.33067,-1.90134 -3.4961,-4.96722 -3.4961,-9.19922 v -36.80078 l 13.15625,-1.10352 v 30.91211 c 0,2.08533 0.47512,3.55735 1.42578,4.41601 0.95067,0.85867 2.07138,1.28711 3.35938,1.28711 h 0.45898 c 1.71734,-0.184 3.08175,-0.62865 4.09375,-1.33398 1.012,-0.70533 1.82612,-1.64131 2.43946,-2.80664 v -32.6582 z"
     style="fill:#306998"
     id="path17" />
  <path
     d="m 306.19983,227.27733 c -0.368,0 -0.72126,0.0143 -1.0586,0.0449 -0.33733,0.0307 -0.66013,0.0469 -0.96679,0.0469 -2.45334,0.184 -4.53853,0.96571 -6.25586,2.34571 -1.71734,1.38 -3.00462,2.86822 -3.86328,4.46289 -1.16534,-1.472 -2.83634,-2.7917 -5.01368,-3.95703 -2.17733,-1.16534 -4.52439,-1.74805 -7.03906,-1.74805 -0.24533,0 -0.47478,0.0162 -0.68945,0.0469 -0.21467,0.0307 -0.44412,0.0449 -0.68945,0.0449 -1.472,0.12266 -2.91356,0.50639 -4.32422,1.15039 -1.41067,0.644 -2.60656,1.4257 -3.58789,2.3457 l -2.48438,-2.20703 -14.07617,1.19531 v 50.50781 l 9.19922,4.59961 14.99609,-1.28711 v -4.41601 l 8.74024,4.59961 14.8125,-1.37891 v -4.32422 l 8.64843,4.50782 14.9961,-1.19727 v -37.44336 c 0,-3.80267 -0.9969,-7.03708 -2.99024,-9.70508 -1.99333,-2.668 -4.61652,-4.70847 -7.86718,-6.11914 -3.25067,-1.41066 -6.745,-2.11523 -10.48633,-2.11523 z m -0.36914,0.91992 c 3.312,0 6.07325,1.01116 8.28125,3.03516 2.208,2.024 3.31054,5.15276 3.31054,9.38476 v 36.61524 l -13.15625,1.10546 v -30.54492 c 0,-2.024 -0.3513,-3.46555 -1.05664,-4.32422 -0.70533,-0.85866 -1.73269,-1.28711 -3.08203,-1.28711 h -0.64453 c -1.59467,0.12267 -2.86769,0.79678 -3.81836,2.02344 -0.95066,1.22667 -1.5781,2.57683 -1.88476,4.04883 v 30.08398 l -12.97266,1.19532 v -30.54492 c 0,-2.024 -0.36752,-3.47981 -1.10352,-4.36915 -0.736,-0.88933 -1.7491,-1.33398 -3.03711,-1.33398 h -0.64453 c -1.656,0.12267 -2.95753,0.79677 -3.9082,2.02344 -0.95067,1.22666 -1.58005,2.60729 -1.88672,4.14062 v 30.08399 l -13.15625,1.01172 v -48.66797 l 12.23633,-1.01172 v 9.29101 l 0.27539,-0.0918 c 0.49067,-2.63734 1.71702,-4.99865 3.67969,-7.08399 1.96266,-2.08533 4.44779,-3.25076 7.45312,-3.49609 0.24534,0 0.47479,-0.0143 0.68946,-0.0449 0.21466,-0.0307 0.44412,-0.0469 0.68945,-0.0469 3.312,0 5.87426,0.93598 7.68359,2.80664 1.80934,1.87067 2.95856,3.90919 3.44922,6.11719 l 0.27539,0.0918 c 0.368,-1.53334 1.01164,-3.03582 1.93164,-4.50782 0.92,-1.47199 2.1321,-2.72881 3.63477,-3.77148 1.50267,-1.04267 3.2346,-1.65584 5.19726,-1.83984 0.30667,0 0.5828,-0.0162 0.82813,-0.0469 0.24533,-0.0307 0.49099,-0.0449 0.73633,-0.0449 z"
     style="fill:#306998"
     id="path13" />
  <path
     d="m 415.21741,227.18553 c -2.14667,0.184 -4.12426,1.15044 -5.9336,2.89844 -1.80933,1.748 -2.99097,3.97125 -3.54297,6.66992 h -0.27539 v -7.54492 l -12.97265,1.19531 v 48.75977 l 13.15625,-1.19532 v -26.67968 c 0,-1.77867 0.39798,-3.48014 1.19531,-5.10547 0.79733,-1.62534 1.87137,-2.9755 3.2207,-4.04883 1.34934,-1.07333 2.82135,-1.6703 4.41602,-1.79297 0.368,-0.0613 0.73551,-0.0937 1.10351,-0.0937 h 1.01172 c 1.104,0 2.13137,0.1076 3.08203,0.32227 0.95067,0.21466 1.91711,0.507 2.89844,0.875 l -1.56445,-13.61719 c -0.552,-0.12267 -1.22611,-0.26073 -2.02344,-0.41406 -0.79733,-0.15334 -1.68663,-0.22852 -2.66797,-0.22852 z"
     style="fill:#ffffff;fill-opacity:1"
     id="path12" />
  <path
     d="m 415.12561,226.26561 c -2.45333,0.184 -4.60141,1.19516 -6.44141,3.03516 l -2.29883,-1.10352 -14.8125,1.37891 v 50.50976 l 9.19922,4.59961 14.9961,-1.38086 v -27.41601 c 0,-1.59467 0.35326,-3.14382 1.05859,-4.64649 0.70533,-1.50266 1.67177,-2.74327 2.89844,-3.72461 1.22667,-0.98133 2.57487,-1.53358 4.04687,-1.65625 0.30667,-0.0613 0.62947,-0.0918 0.9668,-0.0918 h 0.9668 c 1.96266,0 4.35445,0.55225 7.17578,1.65625 l -1.74805,-15.82422 -9.20117,-4.59961 c -0.85867,-0.184 -1.74797,-0.35448 -2.66797,-0.50782 -0.92,-0.15333 -1.90069,-0.22851 -2.94336,-0.22851 z m 0.0918,0.91992 h 1.10351 c 0.98134,0 1.87064,0.0752 2.66797,0.22852 0.79733,0.15333 1.47144,0.29139 2.02344,0.41406 l 1.56445,13.61719 c -0.98133,-0.368 -1.94777,-0.66034 -2.89844,-0.875 -0.95066,-0.21467 -1.97803,-0.32227 -3.08203,-0.32227 h -1.01172 c -0.368,0 -0.73551,0.0324 -1.10351,0.0937 -1.59467,0.12267 -3.06668,0.71964 -4.41602,1.79297 -1.34933,1.07333 -2.42337,2.42349 -3.2207,4.04883 -0.79733,1.62533 -1.19531,3.3268 -1.19531,5.10547 v 26.67968 l -13.15625,1.19532 v -48.75977 l 12.97265,-1.19531 v 7.54492 h 0.27539 c 0.552,-2.69867 1.73364,-4.92192 3.54297,-6.66992 1.80934,-1.748 3.78693,-2.71444 5.9336,-2.89844 z"
     style="fill:#306998"
     id="path11" />
  <path
     d="m 451.18616,210.2578 -13.15625,1.19531 v 68.08008 l 13.15625,-1.19532 v -9.38476 l 4.875,-8.46484 8.09765,17.66406 14.81055,-1.28711 -14.99609,-27.87695 13.24804,-20.69922 -14.99609,1.28711 -11.03906,19.41211 z"
     style="fill:#ffffff;fill-opacity:1"
     id="path10" />
  <path
     d="m 452.10608,209.24412 -14.9961,1.38086 v 69.82813 l 9.19922,4.59961 14.9961,-1.37891 v -9.75195 l 2.39257,5.15039 9.19922,4.60156 16.83594,-1.38086 -15.54687,-28.70312 13.98437,-21.80469 -9.20117,-4.59961 -17.29492,1.4707 -0.36914,0.64454 v -15.45508 z m -0.91992,1.01368 v 38.73047 l 11.03906,-19.41211 14.99609,-1.28711 -13.24804,20.69922 14.99609,27.87695 -14.81055,1.28711 -8.09765,-17.66406 -4.875,8.46484 v 9.38476 l -13.15625,1.19532 v -68.08008 z"
     style="fill:#306998"
     id="path9" />
  <path
     d="m 575.02405,205.01366 -21.16016,1.93164 v 85.46679 l 21.16016,-1.83984 v -11.13086 l -10.76367,0.91992 v -63.20508 l 10.76367,-1.01171 z"
     style="fill:#ffffff;fill-opacity:1"
     id="path8" />
  <path
     d="m 728.94202,204.55272 -21.16016,1.93164 v 11.13281 l 10.76367,-1.01172 v 63.20313 l -10.76367,1.01172 v 11.13281 l 21.16016,-1.83984 z"
     style="fill:#ffffff;fill-opacity:1"
     id="path7" />
  <path
     d="m 575.94397,204.00194 -23,2.11523 v 87.3086 l 9.19922,4.5996 23,-2.02343 v -13.06446 l -9.19922,-4.50781 -1.56445,0.1836 v -56.02735 l 10.76367,-1.01367 v -12.9707 z m -0.91992,1.01172 v 11.13086 l -10.76367,1.01171 v 63.20508 l 10.76367,-0.91992 v 11.13086 l -21.16016,1.83984 V 206.9453 Z"
     style="fill:#ffd43b"
     id="path6" />
  <path
     d="m 614.401,240.70897 c -2.14667,0.184 -3.8786,1.16469 -5.19727,2.94336 -1.31866,1.77866 -1.97851,4.04859 -1.97851,6.80859 v 12.69531 c 0.30667,1.288 1.02744,2.33158 2.16211,3.12891 1.13466,0.79733 2.46862,1.19531 4.00195,1.19531 h 0.82813 c 2.69866,-0.24533 4.66005,-1.42501 5.88672,-3.54101 1.22666,-2.116 1.84179,-5.50468 1.84179,-10.16602 0,-4.6 -0.67606,-7.92775 -2.02539,-9.98242 -1.34933,-2.05467 -3.00413,-3.08203 -4.9668,-3.08203 z m 5.98047,6.80859 c 0.24533,0.79734 0.41386,1.73136 0.50586,2.80469 0.092,1.07333 0.13672,2.22451 0.13672,3.45117 0,3.18934 -0.33706,5.73343 -1.01172,7.63477 -0.67467,1.90133 -1.56397,3.28196 -2.66797,4.14062 v -10.48828 c 0,-2.51467 0.23141,-4.30752 0.69141,-5.38086 0.46,-1.07333 1.2417,-1.79411 2.3457,-2.16211 z"
     style="fill:#306998"
     id="path27" />
  <path
     d="m 618.35608,227.55272 c -0.368,0 -0.73552,0.0305 -1.10352,0.0918 -1.656,0.12266 -3.12801,0.47592 -4.41601,1.05859 -1.288,0.58267 -2.42297,1.27298 -3.4043,2.07031 l -2.20703,-1.10351 -14.07617,1.19531 v 66.51562 l 9.19922,4.59961 14.99609,-1.28711 v -17.01953 c 0.736,0.30667 1.7329,0.64372 2.99023,1.01172 1.25734,0.368 2.74556,0.55078 4.46289,0.55078 h 0.87305 c 0.276,0 0.53787,-0.0305 0.7832,-0.0918 6.01067,-0.49067 10.70284,-3.09765 14.07618,-7.82032 3.37333,-4.72266 5.05859,-11.43715 5.05859,-20.14648 0,-4.968 -0.73503,-9.29266 -2.20703,-12.97266 -1.472,-3.68 -3.4496,-6.76209 -5.93359,-9.24609 -2.484,-2.484 -5.27572,-4.33974 -8.37305,-5.56641 -3.09734,-1.22666 -6.30128,-1.83984 -9.61328,-1.83984 z m -0.13672,0.91992 h 0.78125 c 5.09067,0 9.10873,2.00806 12.05273,6.02539 2.944,4.01733 4.41602,10.04346 4.41602,18.07813 0,8.40266 -1.59582,14.9039 -4.78516,19.5039 -3.18933,4.6 -7.69677,7.14605 -13.52343,7.63672 -0.24534,0.0613 -0.50525,0.0918 -0.78125,0.0918 h -0.78321 c -2.08533,0 -3.83347,-0.38373 -5.24414,-1.15039 -1.41066,-0.76667 -2.36089,-1.73115 -2.85156,-2.89649 l -0.27539,0.0918 v 19.41211 l -13.15625,1.10351 v -64.67578 l 12.23633,-1.01172 v 5.61133 h 0.27539 c 0.736,-1.90133 1.99282,-3.6028 3.77148,-5.10547 1.77867,-1.50266 4.10952,-2.37771 6.99219,-2.62304 0.30667,-0.0613 0.599,-0.0918 0.875,-0.0918 z"
     style="fill:#306998"
     id="path19" />
  <path
     d="m 692.59631,227.27733 -15.17968,1.3789 c -0.42934,2.69867 -0.84353,5.15333 -1.24219,7.36133 -0.39867,2.208 -0.87378,4.53886 -1.42578,6.99219 l -2.85157,-9.56836 -9.19921,-4.59961 -16.37696,1.4707 15.27149,44.5293 c -1.41067,2.08533 -3.2502,4.36952 -5.51953,6.85352 -2.26934,2.484 -4.75251,4.89199 -7.45118,7.22265 l 12.14258,8.73828 9.20117,4.60157 c 6.19467,-6.44 11.34575,-13.17265 15.45508,-20.19532 4.10933,-7.02266 7.4533,-14.64266 10.0293,-22.86132 2.576,-8.21867 4.69165,-17.32689 6.34765,-27.32422 z m -1.19531,1.10351 c -1.53333,9.50667 -3.5576,18.24737 -6.07227,26.22071 -2.51466,7.97333 -5.76528,15.37813 -9.75195,22.21679 -3.98667,6.83867 -8.98543,13.35612 -14.99609,19.55078 l -10.48828,-7.54492 c 2.33066,-1.96266 4.64726,-4.21638 6.94726,-6.76172 2.3,-2.54533 4.15379,-4.89044 5.56446,-7.03711 l -14.9961,-43.88476 14.35352,-1.28711 9.01562,29.90039 c 1.656,-4.53867 3.06709,-9.30797 4.23242,-14.30664 1.16534,-4.99867 2.14603,-10.28976 2.94336,-15.87109 z"
     style="fill:#306998"
     id="path15" />
  <path
     d="m 729.86194,203.541 -23,2.11523 v 12.97266 l 9.19922,4.59961 0.55273,-0.0449 c 0.368,-0.0307 0.64413,-0.0469 0.82813,-0.0469 h 0.18359 v 55.93555 l -10.76367,0.91992 v 12.97266 l 9.19922,4.59961 23,-2.02344 v -87.40039 z m -0.91992,1.01172 v 85.56055 l -21.16016,1.83984 V 280.8203 l 10.76367,-1.01172 v -63.20313 l -10.76367,1.01172 v -11.13281 z"
     style="fill:#ffd43b"
     id="path5" />
</svg>
